<?xml version="1.0" encoding="utf-8"?>
<!-- Generator: Adobe Illustrator 19.1.0, SVG Export Plug-In . SVG Version: 6.00 Build 0)  -->
<svg version="1.1" id="Layer_1" xmlns="http://www.w3.org/2000/svg" xmlns:xlink="http://www.w3.org/1999/xlink" x="0px" y="0px"
	 viewBox="-392 477.7 214 47.3" style="enable-background:new -392 477.7 214 47.3;" xml:space="preserve">
<style type="text/css">
	.st0{fill:#FCCC0F;}
</style>
<g>
	<path class="st0" d="M-217.4,491.5c5.1-0.1,9.2,3.9,9.3,9s-3.9,9.1-9.1,9.2c-5.2,0.1-9.2-3.8-9.3-9
		C-226.6,495.4-222.8,491.6-217.4,491.5z M-211.8,500.6c0-1.2-0.3-2.3-1-3.3c-2.2-3.5-6.9-3.6-9-0.1c-1.4,2.2-1.2,5.3,0.3,7.3
		c1.8,2.5,5.3,2.8,7.6,0.8C-212.5,504-211.9,502.4-211.8,500.6z"/>
	<path class="st0" d="M-246.3,504.4l2.4,1.9c0.1,0.1,0.1,0.3,0,0.4c-2.3,2.5-6.2,3.9-10,2.5c-3.9-1.4-6.4-5.1-6.2-9.1
		c0.2-3.8,3.2-7.2,7.2-8.3c3.2-0.8,7.1,0.4,8.7,2.7c0.1,0.1,0,0.3-0.1,0.3l-2.4,1.9c-0.1,0.1-0.3,0.1-0.4-0.1
		c-0.1-0.1-0.1-0.2-0.2-0.3c-2.6-2.8-5.8-1.9-7.6,0.2c-2.3,2.6-2,6.7,0.7,8.9c2.1,1.7,4.8,1.5,6.8-0.4c0.2-0.2,0.4-0.4,0.7-0.6
		C-246.5,504.3-246.4,504.3-246.3,504.4z"/>
	<path class="st0" d="M-204.9,491.8h3c0.2,0,0.3,0.1,0.3,0.3v14c0,0.2,0.1,0.3,0.3,0.3h7.4c0.2,0,0.3,0.1,0.3,0.3v2.3
		c0,0.2-0.1,0.3-0.3,0.3H-205c-0.2,0-0.3-0.1-0.3-0.3v-16.9C-205.3,492-205.1,491.8-204.9,491.8z"/>
	<path class="st0" d="M-285.5,509.6h-3.4c-0.1,0-0.1-0.1-0.1-0.1v-17.6c0-0.1,0.1-0.2,0.2-0.1c3,3.1,5.9,6.1,8.8,9.1
		c0,0.1,0.1,0.1,0.2,0c2.9-3,5.8-6,8.7-9.1c0.1-0.1,0.2,0,0.2,0.1v17.6c0,0.1-0.1,0.1-0.1,0.1h-3.3c-0.1,0-0.1-0.1-0.1-0.1v-9.2
		c-0.2-0.1-0.2-0.1-0.3-0.1c-1.7,1.7-3.4,3.4-5.1,5.2c0,0-0.1,0-0.2,0c-1.7-1.7-3.4-3.5-5.1-5.3c-0.1-0.1-0.2,0-0.2,0.1v9.4
		C-285.4,509.5-285.4,509.6-285.5,509.6z"/>
	<path class="st0" d="M-301.3,491.5c5.1-0.1,9.2,3.9,9.3,9s-3.9,9.1-9.1,9.2c-5.2,0.1-9.2-3.8-9.3-9.1
		C-310.5,495.4-306.7,491.6-301.3,491.5z M-306.8,500.6c0.1,0.6,0.1,1.3,0.3,1.9c0.6,2,1.8,3.4,3.8,4c2,0.5,3.7,0,5.2-1.5
		c2.1-2.2,2.2-5.8,0.3-8.2c-1.3-1.6-3-2.4-5.2-2C-305,495.3-306.7,497.6-306.8,500.6z"/>
	<path class="st0" d="M-332.8,491.4c2.8,5.9,5.6,11.7,8.4,17.5c0.1,0.1,0,0.2-0.1,0.2c-0.7,0-1.3,0-2,0c-0.5,0-1.2,0.2-1.5-0.1
		c-0.4-0.2-0.5-0.9-0.7-1.4c-0.3-0.7-0.6-1.4-0.9-2c-0.1-0.2-0.3-0.3-0.5-0.3c-1.9,0-3.7,0-5.6,0c-0.3,0-0.5,0.1-0.6,0.4
		c-0.4,1-0.8,1.9-1.2,2.9c-0.1,0.3-0.5,0.5-0.8,0.5c-1,0-2,0-3,0c-0.1,0-0.2-0.1-0.1-0.2c2.8-5.9,5.6-11.6,8.4-17.5
		C-333,491.3-332.8,491.3-332.8,491.4z M-333,498.4l-1.7,3.8c0,0.1,0,0.2,0.1,0.2h3.3c0.1,0,0.2-0.1,0.1-0.2l-1.6-3.8
		C-332.8,498.3-333,498.3-333,498.4z"/>
	<path class="st0" d="M-325.1,494.6v-2.5c0-0.1,0.1-0.2,0.2-0.2h13.1c0.1,0,0.2,0.1,0.2,0.2v2.5c0,0.1-0.1,0.2-0.2,0.2h-4.5
		c-0.1,0-0.2,0.1-0.2,0.2v14.1c0,0.1-0.1,0.2-0.2,0.2h-3.2c-0.1,0-0.2-0.1-0.2-0.2V495c0-0.1-0.1-0.2-0.2-0.2h-4.5
		C-325,494.8-325.1,494.7-325.1,494.6z"/>
	<path class="st0" d="M-233,491.7h3.2c0.1,0,0.3,0.1,0.3,0.3c0,0.1,0,0.2,0,0.2c0,4.9,0,10.3,0,15.3c0,3.8-2.5,7-6.1,7.9
		c-0.6,0.2-1.3,0.2-2,0.3c-0.2,0-0.3-0.1-0.3-0.3v-2.6c0-0.1,0.1-0.3,0.2-0.3c0.3,0,0.6,0,0.9-0.1c1.8-0.4,3.2-2,3.4-4
		c0-0.4,0.1-0.9,0.1-1.3c0-4.8,0-10,0-14.8v-0.4C-233.3,491.9-233.2,491.7-233,491.7z"/>
	<path class="st0" d="M-266.6,491.8h3.2c0.1,0,0.2,0.1,0.2,0.2v17.1c0,0.1-0.1,0.2-0.2,0.2h-3.2c-0.1,0-0.2-0.1-0.2-0.2V492
		C-266.8,491.9-266.8,491.8-266.6,491.8z"/>
	<g>
		<path class="st0" d="M-189.4,494.8h-4.5c-0.1,0-0.2-0.1-0.2-0.2v-2.5c0-0.1,0.1-0.2,0.2-0.2h13.1c0.1,0,0.2,0.1,0.2,0.2v2.5
			c0,0.1-0.1,0.2-0.2,0.2h-4.5c-0.1,0-0.2,0.1-0.2,0.2v14.1c0,0.1-0.1,0.2-0.2,0.2h-3.2c-0.1,0-0.2-0.1-0.2-0.2V495
			C-189.1,494.9-189.2,494.8-189.4,494.8z"/>
	</g>
</g>
<path class="st0" d="M-362,485.8l-8.7-7c-0.1-0.1-0.2-0.1-0.3,0l-18.3,26.5c-0.1,0.1,0,0.2,0,0.2l15,16c0,0.1,0.1,0.1,0.2,0.1
	l19.2-5.1c0.1,0,0.2-0.1,0.1-0.2l-7.3-30.4C-361.9,485.9-362,485.9-362,485.8z M-379.7,512.5l11.2-16c0.1-0.1,0.3-0.1,0.4,0.1
	l2.7,12.9c0,0.1,0,0.2-0.1,0.2l-13.3,3.7c-0.1,0-0.1,0-0.2-0.1l-0.5-0.5C-379.8,512.7-379.8,512.6-379.7,512.5z M-367.3,491
	L-367.3,491l-1.7-7.7c0-0.2,0.2-0.3,0.3-0.2l4.3,3.4c0.1,0.1,0.1,0.2,0,0.3L-367.3,491L-367.3,491z M-371.1,483.3l2.2,10
	c0,0.1,0,0.1,0,0.2l-12.2,17.4c-0.1,0.1-0.2,0.1-0.3,0l-5.1-5.5c-0.1-0.1-0.1-0.2,0-0.2l15.2-22
	C-371.4,483.1-371.1,483.1-371.1,483.3z M-377.2,515l13.9-3.9c0.1,0,0.2-0.1,0.1-0.2l-3.5-17c0-0.1,0-0.1,0-0.2l3.1-4.4
	c0.1-0.1,0.3-0.1,0.4,0.1l6.2,25.5c0,0.1,0,0.2-0.1,0.2l-16.1,4.3c-0.1,0-0.1,0-0.2-0.1l-3.8-4C-377.4,515.2-377.4,515-377.2,515z"
	/>
</svg>
